<svg xmlns:dc="http://purl.org/dc/elements/1.1/" xmlns:cc="http://creativecommons.org/ns#" xmlns:rdf="http://www.w3.org/1999/02/22-rdf-syntax-ns#" xmlns:svg="http://www.w3.org/2000/svg" xmlns="http://www.w3.org/2000/svg" xmlns:sodipodi="http://sodipodi.sourceforge.net/DTD/sodipodi-0.dtd" xmlns:inkscape="http://www.inkscape.org/namespaces/inkscape" version="1.1" x="0px" y="0px" viewBox="0 0 500 500" xml:space="preserve" id="el_3IWKQKYlC" sodipodi:docname="faq-icon.svg" width="500" height="500" inkscape:version="0.92.3 (2405546, 2018-03-11)"><style>@-webkit-keyframes el_XZNkTjdt07x_D_0gdOLHZ_Animation{0%{-webkit-transform: translate(232.00000381469727px, 434.69999980926514px) scale(1, 1) translate(-232.00000381469727px, -434.69999980926514px);transform: translate(232.00000381469727px, 434.69999980926514px) scale(1, 1) translate(-232.00000381469727px, -434.69999980926514px);}16.67%{-webkit-transform: translate(232.00000381469727px, 434.69999980926514px) scale(0.97, 0.97) translate(-232.00000381469727px, -434.69999980926514px);transform: translate(232.00000381469727px, 434.69999980926514px) scale(0.97, 0.97) translate(-232.00000381469727px, -434.69999980926514px);}33.33%{-webkit-transform: translate(232.00000381469727px, 434.69999980926514px) scale(1.02, 1.02) translate(-232.00000381469727px, -434.69999980926514px);transform: translate(232.00000381469727px, 434.69999980926514px) scale(1.02, 1.02) translate(-232.00000381469727px, -434.69999980926514px);}50%{-webkit-transform: translate(232.00000381469727px, 434.69999980926514px) scale(0.96, 0.96) translate(-232.00000381469727px, -434.69999980926514px);transform: translate(232.00000381469727px, 434.69999980926514px) scale(0.96, 0.96) translate(-232.00000381469727px, -434.69999980926514px);}66.67%{-webkit-transform: translate(232.00000381469727px, 434.69999980926514px) scale(0.95, 0.95) translate(-232.00000381469727px, -434.69999980926514px);transform: translate(232.00000381469727px, 434.69999980926514px) scale(0.95, 0.95) translate(-232.00000381469727px, -434.69999980926514px);}83.33%{-webkit-transform: translate(232.00000381469727px, 434.69999980926514px) scale(1.03, 1.03) translate(-232.00000381469727px, -434.69999980926514px);transform: translate(232.00000381469727px, 434.69999980926514px) scale(1.03, 1.03) translate(-232.00000381469727px, -434.69999980926514px);}100%{-webkit-transform: translate(232.00000381469727px, 434.69999980926514px) scale(1, 1) translate(-232.00000381469727px, -434.69999980926514px);transform: translate(232.00000381469727px, 434.69999980926514px) scale(1, 1) translate(-232.00000381469727px, -434.69999980926514px);}}@keyframes el_XZNkTjdt07x_D_0gdOLHZ_Animation{0%{-webkit-transform: translate(232.00000381469727px, 434.69999980926514px) scale(1, 1) translate(-232.00000381469727px, -434.69999980926514px);transform: translate(232.00000381469727px, 434.69999980926514px) scale(1, 1) translate(-232.00000381469727px, -434.69999980926514px);}16.67%{-webkit-transform: translate(232.00000381469727px, 434.69999980926514px) scale(0.97, 0.97) translate(-232.00000381469727px, -434.69999980926514px);transform: translate(232.00000381469727px, 434.69999980926514px) scale(0.97, 0.97) translate(-232.00000381469727px, -434.69999980926514px);}33.33%{-webkit-transform: translate(232.00000381469727px, 434.69999980926514px) scale(1.02, 1.02) translate(-232.00000381469727px, -434.69999980926514px);transform: translate(232.00000381469727px, 434.69999980926514px) scale(1.02, 1.02) translate(-232.00000381469727px, -434.69999980926514px);}50%{-webkit-transform: translate(232.00000381469727px, 434.69999980926514px) scale(0.96, 0.96) translate(-232.00000381469727px, -434.69999980926514px);transform: translate(232.00000381469727px, 434.69999980926514px) scale(0.96, 0.96) translate(-232.00000381469727px, -434.69999980926514px);}66.67%{-webkit-transform: translate(232.00000381469727px, 434.69999980926514px) scale(0.95, 0.95) translate(-232.00000381469727px, -434.69999980926514px);transform: translate(232.00000381469727px, 434.69999980926514px) scale(0.95, 0.95) translate(-232.00000381469727px, -434.69999980926514px);}83.33%{-webkit-transform: translate(232.00000381469727px, 434.69999980926514px) scale(1.03, 1.03) translate(-232.00000381469727px, -434.69999980926514px);transform: translate(232.00000381469727px, 434.69999980926514px) scale(1.03, 1.03) translate(-232.00000381469727px, -434.69999980926514px);}100%{-webkit-transform: translate(232.00000381469727px, 434.69999980926514px) scale(1, 1) translate(-232.00000381469727px, -434.69999980926514px);transform: translate(232.00000381469727px, 434.69999980926514px) scale(1, 1) translate(-232.00000381469727px, -434.69999980926514px);}}@-webkit-keyframes el_XZNkTjdt07x_y_WAUtSZL_Animation{0%{-webkit-transform: translate(232.00000381469727px, 434.69999980926514px) translate(-232.00000381469727px, -434.69999980926514px) translate(0px, 0px);transform: translate(232.00000381469727px, 434.69999980926514px) translate(-232.00000381469727px, -434.69999980926514px) translate(0px, 0px);}16.67%{-webkit-transform: translate(232.00000381469727px, 434.69999980926514px) translate(-232.00000381469727px, -434.69999980926514px) translate(-5px, 0px);transform: translate(232.00000381469727px, 434.69999980926514px) translate(-232.00000381469727px, -434.69999980926514px) translate(-5px, 0px);}33.33%{-webkit-transform: translate(232.00000381469727px, 434.69999980926514px) translate(-232.00000381469727px, -434.69999980926514px) translate(5px, 0px);transform: translate(232.00000381469727px, 434.69999980926514px) translate(-232.00000381469727px, -434.69999980926514px) translate(5px, 0px);}50%{-webkit-transform: translate(232.00000381469727px, 434.69999980926514px) translate(-232.00000381469727px, -434.69999980926514px) translate(-2px, 0px);transform: translate(232.00000381469727px, 434.69999980926514px) translate(-232.00000381469727px, -434.69999980926514px) translate(-2px, 0px);}66.67%{-webkit-transform: translate(232.00000381469727px, 434.69999980926514px) translate(-232.00000381469727px, -434.69999980926514px) translate(10px, 0px);transform: translate(232.00000381469727px, 434.69999980926514px) translate(-232.00000381469727px, -434.69999980926514px) translate(10px, 0px);}83.33%{-webkit-transform: translate(232.00000381469727px, 434.69999980926514px) translate(-232.00000381469727px, -434.69999980926514px) translate(-3px, 0px);transform: translate(232.00000381469727px, 434.69999980926514px) translate(-232.00000381469727px, -434.69999980926514px) translate(-3px, 0px);}100%{-webkit-transform: translate(232.00000381469727px, 434.69999980926514px) translate(-232.00000381469727px, -434.69999980926514px) translate(0px, 0px);transform: translate(232.00000381469727px, 434.69999980926514px) translate(-232.00000381469727px, -434.69999980926514px) translate(0px, 0px);}}@keyframes el_XZNkTjdt07x_y_WAUtSZL_Animation{0%{-webkit-transform: translate(232.00000381469727px, 434.69999980926514px) translate(-232.00000381469727px, -434.69999980926514px) translate(0px, 0px);transform: translate(232.00000381469727px, 434.69999980926514px) translate(-232.00000381469727px, -434.69999980926514px) translate(0px, 0px);}16.67%{-webkit-transform: translate(232.00000381469727px, 434.69999980926514px) translate(-232.00000381469727px, -434.69999980926514px) translate(-5px, 0px);transform: translate(232.00000381469727px, 434.69999980926514px) translate(-232.00000381469727px, -434.69999980926514px) translate(-5px, 0px);}33.33%{-webkit-transform: translate(232.00000381469727px, 434.69999980926514px) translate(-232.00000381469727px, -434.69999980926514px) translate(5px, 0px);transform: translate(232.00000381469727px, 434.69999980926514px) translate(-232.00000381469727px, -434.69999980926514px) translate(5px, 0px);}50%{-webkit-transform: translate(232.00000381469727px, 434.69999980926514px) translate(-232.00000381469727px, -434.69999980926514px) translate(-2px, 0px);transform: translate(232.00000381469727px, 434.69999980926514px) translate(-232.00000381469727px, -434.69999980926514px) translate(-2px, 0px);}66.67%{-webkit-transform: translate(232.00000381469727px, 434.69999980926514px) translate(-232.00000381469727px, -434.69999980926514px) translate(10px, 0px);transform: translate(232.00000381469727px, 434.69999980926514px) translate(-232.00000381469727px, -434.69999980926514px) translate(10px, 0px);}83.33%{-webkit-transform: translate(232.00000381469727px, 434.69999980926514px) translate(-232.00000381469727px, -434.69999980926514px) translate(-3px, 0px);transform: translate(232.00000381469727px, 434.69999980926514px) translate(-232.00000381469727px, -434.69999980926514px) translate(-3px, 0px);}100%{-webkit-transform: translate(232.00000381469727px, 434.69999980926514px) translate(-232.00000381469727px, -434.69999980926514px) translate(0px, 0px);transform: translate(232.00000381469727px, 434.69999980926514px) translate(-232.00000381469727px, -434.69999980926514px) translate(0px, 0px);}}@-webkit-keyframes el_HECjuanuJ5H_xCnHg48CN_Animation{0%{-webkit-transform: translate(0px, 0px) translate(0px, 0px) translate(0px, 0px);transform: translate(0px, 0px) translate(0px, 0px) translate(0px, 0px);}16.67%{-webkit-transform: translate(0px, 0px) translate(0px, 0px) translate(-5px, -3px);transform: translate(0px, 0px) translate(0px, 0px) translate(-5px, -3px);}33.33%{-webkit-transform: translate(0px, 0px) translate(0px, 0px) translate(5px, 2px);transform: translate(0px, 0px) translate(0px, 0px) translate(5px, 2px);}50%{-webkit-transform: translate(0px, 0px) translate(0px, 0px) translate(-2px, 4px);transform: translate(0px, 0px) translate(0px, 0px) translate(-2px, 4px);}66.67%{-webkit-transform: translate(0px, 0px) translate(0px, 0px) translate(10px, -5px);transform: translate(0px, 0px) translate(0px, 0px) translate(10px, -5px);}83.33%{-webkit-transform: translate(0px, 0px) translate(0px, 0px) translate(-3px, 3px);transform: translate(0px, 0px) translate(0px, 0px) translate(-3px, 3px);}100%{-webkit-transform: translate(0px, 0px) translate(0px, 0px) translate(0px, 0px);transform: translate(0px, 0px) translate(0px, 0px) translate(0px, 0px);}}@keyframes el_HECjuanuJ5H_xCnHg48CN_Animation{0%{-webkit-transform: translate(0px, 0px) translate(0px, 0px) translate(0px, 0px);transform: translate(0px, 0px) translate(0px, 0px) translate(0px, 0px);}16.67%{-webkit-transform: translate(0px, 0px) translate(0px, 0px) translate(-5px, -3px);transform: translate(0px, 0px) translate(0px, 0px) translate(-5px, -3px);}33.33%{-webkit-transform: translate(0px, 0px) translate(0px, 0px) translate(5px, 2px);transform: translate(0px, 0px) translate(0px, 0px) translate(5px, 2px);}50%{-webkit-transform: translate(0px, 0px) translate(0px, 0px) translate(-2px, 4px);transform: translate(0px, 0px) translate(0px, 0px) translate(-2px, 4px);}66.67%{-webkit-transform: translate(0px, 0px) translate(0px, 0px) translate(10px, -5px);transform: translate(0px, 0px) translate(0px, 0px) translate(10px, -5px);}83.33%{-webkit-transform: translate(0px, 0px) translate(0px, 0px) translate(-3px, 3px);transform: translate(0px, 0px) translate(0px, 0px) translate(-3px, 3px);}100%{-webkit-transform: translate(0px, 0px) translate(0px, 0px) translate(0px, 0px);transform: translate(0px, 0px) translate(0px, 0px) translate(0px, 0px);}}@-webkit-keyframes el_aCB2ztl8tQP_Kj5tBmz-n_Animation{0%{-webkit-transform: translate(328.6083221435547px, 191.5937271118164px) translate(-328.6083221435547px, -191.5937271118164px) translate(0px, 0px);transform: translate(328.6083221435547px, 191.5937271118164px) translate(-328.6083221435547px, -191.5937271118164px) translate(0px, 0px);}16.67%{-webkit-transform: translate(328.6083221435547px, 191.5937271118164px) translate(-328.6083221435547px, -191.5937271118164px) translate(5px, 3px);transform: translate(328.6083221435547px, 191.5937271118164px) translate(-328.6083221435547px, -191.5937271118164px) translate(5px, 3px);}33.33%{-webkit-transform: translate(328.6083221435547px, 191.5937271118164px) translate(-328.6083221435547px, -191.5937271118164px) translate(-3px, -2px);transform: translate(328.6083221435547px, 191.5937271118164px) translate(-328.6083221435547px, -191.5937271118164px) translate(-3px, -2px);}50%{-webkit-transform: translate(328.6083221435547px, 191.5937271118164px) translate(-328.6083221435547px, -191.5937271118164px) translate(2px, -5px);transform: translate(328.6083221435547px, 191.5937271118164px) translate(-328.6083221435547px, -191.5937271118164px) translate(2px, -5px);}66.67%{-webkit-transform: translate(328.6083221435547px, 191.5937271118164px) translate(-328.6083221435547px, -191.5937271118164px) translate(5px, 7px);transform: translate(328.6083221435547px, 191.5937271118164px) translate(-328.6083221435547px, -191.5937271118164px) translate(5px, 7px);}83.33%{-webkit-transform: translate(328.6083221435547px, 191.5937271118164px) translate(-328.6083221435547px, -191.5937271118164px) translate(1px, 4px);transform: translate(328.6083221435547px, 191.5937271118164px) translate(-328.6083221435547px, -191.5937271118164px) translate(1px, 4px);}100%{-webkit-transform: translate(328.6083221435547px, 191.5937271118164px) translate(-328.6083221435547px, -191.5937271118164px) translate(0px, 0px);transform: translate(328.6083221435547px, 191.5937271118164px) translate(-328.6083221435547px, -191.5937271118164px) translate(0px, 0px);}}@keyframes el_aCB2ztl8tQP_Kj5tBmz-n_Animation{0%{-webkit-transform: translate(328.6083221435547px, 191.5937271118164px) translate(-328.6083221435547px, -191.5937271118164px) translate(0px, 0px);transform: translate(328.6083221435547px, 191.5937271118164px) translate(-328.6083221435547px, -191.5937271118164px) translate(0px, 0px);}16.67%{-webkit-transform: translate(328.6083221435547px, 191.5937271118164px) translate(-328.6083221435547px, -191.5937271118164px) translate(5px, 3px);transform: translate(328.6083221435547px, 191.5937271118164px) translate(-328.6083221435547px, -191.5937271118164px) translate(5px, 3px);}33.33%{-webkit-transform: translate(328.6083221435547px, 191.5937271118164px) translate(-328.6083221435547px, -191.5937271118164px) translate(-3px, -2px);transform: translate(328.6083221435547px, 191.5937271118164px) translate(-328.6083221435547px, -191.5937271118164px) translate(-3px, -2px);}50%{-webkit-transform: translate(328.6083221435547px, 191.5937271118164px) translate(-328.6083221435547px, -191.5937271118164px) translate(2px, -5px);transform: translate(328.6083221435547px, 191.5937271118164px) translate(-328.6083221435547px, -191.5937271118164px) translate(2px, -5px);}66.67%{-webkit-transform: translate(328.6083221435547px, 191.5937271118164px) translate(-328.6083221435547px, -191.5937271118164px) translate(5px, 7px);transform: translate(328.6083221435547px, 191.5937271118164px) translate(-328.6083221435547px, -191.5937271118164px) translate(5px, 7px);}83.33%{-webkit-transform: translate(328.6083221435547px, 191.5937271118164px) translate(-328.6083221435547px, -191.5937271118164px) translate(1px, 4px);transform: translate(328.6083221435547px, 191.5937271118164px) translate(-328.6083221435547px, -191.5937271118164px) translate(1px, 4px);}100%{-webkit-transform: translate(328.6083221435547px, 191.5937271118164px) translate(-328.6083221435547px, -191.5937271118164px) translate(0px, 0px);transform: translate(328.6083221435547px, 191.5937271118164px) translate(-328.6083221435547px, -191.5937271118164px) translate(0px, 0px);}}@-webkit-keyframes el_SILjdZuqCD_0mMaaDI5p_Animation{0%{-webkit-transform: translate(120.52246856689453px, 151.2732925415039px) translate(-120.52246856689453px, -151.2732925415039px) translate(0px, 0px);transform: translate(120.52246856689453px, 151.2732925415039px) translate(-120.52246856689453px, -151.2732925415039px) translate(0px, 0px);}16.67%{-webkit-transform: translate(120.52246856689453px, 151.2732925415039px) translate(-120.52246856689453px, -151.2732925415039px) translate(-10px, 15px);transform: translate(120.52246856689453px, 151.2732925415039px) translate(-120.52246856689453px, -151.2732925415039px) translate(-10px, 15px);}33.33%{-webkit-transform: translate(120.52246856689453px, 151.2732925415039px) translate(-120.52246856689453px, -151.2732925415039px) translate(-5px, 5px);transform: translate(120.52246856689453px, 151.2732925415039px) translate(-120.52246856689453px, -151.2732925415039px) translate(-5px, 5px);}50%{-webkit-transform: translate(120.52246856689453px, 151.2732925415039px) translate(-120.52246856689453px, -151.2732925415039px) translate(-10px, -10px);transform: translate(120.52246856689453px, 151.2732925415039px) translate(-120.52246856689453px, -151.2732925415039px) translate(-10px, -10px);}66.67%{-webkit-transform: translate(120.52246856689453px, 151.2732925415039px) translate(-120.52246856689453px, -151.2732925415039px) translate(0px, 10px);transform: translate(120.52246856689453px, 151.2732925415039px) translate(-120.52246856689453px, -151.2732925415039px) translate(0px, 10px);}83.33%{-webkit-transform: translate(120.52246856689453px, 151.2732925415039px) translate(-120.52246856689453px, -151.2732925415039px) translate(-5px, 10px);transform: translate(120.52246856689453px, 151.2732925415039px) translate(-120.52246856689453px, -151.2732925415039px) translate(-5px, 10px);}100%{-webkit-transform: translate(120.52246856689453px, 151.2732925415039px) translate(-120.52246856689453px, -151.2732925415039px) translate(0px, 0px);transform: translate(120.52246856689453px, 151.2732925415039px) translate(-120.52246856689453px, -151.2732925415039px) translate(0px, 0px);}}@keyframes el_SILjdZuqCD_0mMaaDI5p_Animation{0%{-webkit-transform: translate(120.52246856689453px, 151.2732925415039px) translate(-120.52246856689453px, -151.2732925415039px) translate(0px, 0px);transform: translate(120.52246856689453px, 151.2732925415039px) translate(-120.52246856689453px, -151.2732925415039px) translate(0px, 0px);}16.67%{-webkit-transform: translate(120.52246856689453px, 151.2732925415039px) translate(-120.52246856689453px, -151.2732925415039px) translate(-10px, 15px);transform: translate(120.52246856689453px, 151.2732925415039px) translate(-120.52246856689453px, -151.2732925415039px) translate(-10px, 15px);}33.33%{-webkit-transform: translate(120.52246856689453px, 151.2732925415039px) translate(-120.52246856689453px, -151.2732925415039px) translate(-5px, 5px);transform: translate(120.52246856689453px, 151.2732925415039px) translate(-120.52246856689453px, -151.2732925415039px) translate(-5px, 5px);}50%{-webkit-transform: translate(120.52246856689453px, 151.2732925415039px) translate(-120.52246856689453px, -151.2732925415039px) translate(-10px, -10px);transform: translate(120.52246856689453px, 151.2732925415039px) translate(-120.52246856689453px, -151.2732925415039px) translate(-10px, -10px);}66.67%{-webkit-transform: translate(120.52246856689453px, 151.2732925415039px) translate(-120.52246856689453px, -151.2732925415039px) translate(0px, 10px);transform: translate(120.52246856689453px, 151.2732925415039px) translate(-120.52246856689453px, -151.2732925415039px) translate(0px, 10px);}83.33%{-webkit-transform: translate(120.52246856689453px, 151.2732925415039px) translate(-120.52246856689453px, -151.2732925415039px) translate(-5px, 10px);transform: translate(120.52246856689453px, 151.2732925415039px) translate(-120.52246856689453px, -151.2732925415039px) translate(-5px, 10px);}100%{-webkit-transform: translate(120.52246856689453px, 151.2732925415039px) translate(-120.52246856689453px, -151.2732925415039px) translate(0px, 0px);transform: translate(120.52246856689453px, 151.2732925415039px) translate(-120.52246856689453px, -151.2732925415039px) translate(0px, 0px);}}#el_3IWKQKYlC *{-webkit-animation-duration: 3s;animation-duration: 3s;-webkit-animation-iteration-count: infinite;animation-iteration-count: infinite;-webkit-animation-timing-function: cubic-bezier(0, 0, 1, 1);animation-timing-function: cubic-bezier(0, 0, 1, 1);}#el_RP9nuXOlY6{-webkit-transform: matrix(1.0589402,0,0,1.0589402,40.95988,38.604858);transform: matrix(1.0589402,0,0,1.0589402,40.95988,38.604858);}#el_b5GCcnsGti{fill: #79a1e8;}#el_SILjdZuqCD{-webkit-transform: matrix(1.0589402,0,0,1.0589402,40.95988,38.604858);transform: matrix(1.0589402,0,0,1.0589402,40.95988,38.604858);}#el_3LyiqP9-Pn{fill: #f8cf34;stroke: #4b31aa;stroke-width: 4;stroke-linecap: round;stroke-linejoin: round;stroke-miterlimit: 10;}#el_ritjyvA5HA{fill: #f8cf34;stroke: #4b31aa;stroke-width: 4;stroke-linecap: round;stroke-linejoin: round;stroke-miterlimit: 10;}#el_Sa4VM-SaX-{-webkit-transform: matrix(1.0589402,0,0,1.0589402,40.95988,38.604858);transform: matrix(1.0589402,0,0,1.0589402,40.95988,38.604858);}#el_fERApOnDcj{fill: #4b31aa;stroke: #4b31aa;stroke-width: 4;stroke-linecap: round;stroke-linejoin: round;stroke-miterlimit: 10;}#el_mj9Rju2_p2{fill: #d7ecf9;stroke: #4b31aa;stroke-width: 4;stroke-linecap: round;stroke-linejoin: round;stroke-miterlimit: 10;}#el_5zs-Up2Xw4{fill: #4b31aa;stroke: #4b31aa;stroke-width: 4;stroke-linecap: round;stroke-linejoin: round;stroke-miterlimit: 10;}#el_qA7j1_y1IC{fill: #d7ecf9;stroke: #4b31aa;stroke-width: 4;stroke-linecap: round;stroke-linejoin: round;stroke-miterlimit: 10;}#el_-VxXsZr2-Ta{fill: #ffffff;}#el_2Vm1uiW_BEu{fill: #4b31aa;stroke: #4b31aa;stroke-width: 4;stroke-linecap: round;stroke-linejoin: round;stroke-miterlimit: 10;}#el_4DAYMhJ_fAa{fill: #ffffff;stroke: #4b31aa;stroke-width: 4;stroke-linecap: round;stroke-linejoin: round;stroke-miterlimit: 10;}#el_sDHWJYdc0iQ{fill: none;stroke: #d7ecf9;stroke-width: 4;stroke-miterlimit: 10;}#el_gupuPLbkbdB{fill: #4b31aa;}#el_AwyIt1-ySqC{fill: #4b31aa;}#el_Og4vZjU4RWg{fill: #4b31aa;}#el_tjDQF9jRXUm{fill: #4b31aa;}#el_VEL5KBHMkBY{fill: #4b31aa;}#el_cIACKWttWI_{fill: #4b31aa;}#el_-9EH0Butg_I{fill: #4b31aa;}#el_k33TGG97-9P{fill: #4b31aa;}#el__VnD53Nzelz{fill: #4b31aa;}#el_m9UIkgL1OB6{fill: #4b31aa;}#el_sfVANA6Mojn{fill: #4b31aa;}#el_3h_cVJsvXCk{fill: #4b31aa;}#el_U6ESB3E6gPt{fill: #4b31aa;}#el_-t8AIaSzJX2{fill: #4b31aa;}#el_kBwbUJcwacy{fill: #4b31aa;}#el_dUEVz2Eu_uN{fill: #4b31aa;}#el_Gut3rtQ10MG{fill: #f69230;}#el_Y5Qh4rMM8mw{fill: #f69230;}#el_cb5MexH_pzT{fill: #f69230;}#el_3Y8gYQu3gbR{fill: #f69230;}#el_ZqIppFoXQrN{fill: #4b31aa;}#el_tSsXqTzZdA8{fill: #4b31aa;}#el_hoccNBs7KmD{fill: #4b31aa;}#el_jnDjj-rCBAI{fill: #4b31aa;}#el_B4eSMnUTIC6{fill: #4b31aa;}#el_qkDbj08peh-{fill: #4b31aa;}#el_bxEYeBVn2ur{fill: #4b31aa;}#el_O1vaWcEeXyD{fill: #4b31aa;}#el_oDJGeTCHYiM{fill: #4b31aa;}#el_IlSiVElhE7U{fill: #4b31aa;}#el_c1gMn5lT9jX{fill: #4b31aa;}#el_ogEriw9cm6b{fill: #4b31aa;}#el_lsFyJmn8iyY{fill: #4b31aa;}#el_43J2YIwnZPL{fill: #4b31aa;}#el_5KHKm1Kd12F{fill: #4b31aa;}#el_dKl_4oQLr7F{fill: #4b31aa;}#el_HECjuanuJ5H{-webkit-transform: matrix(1.0589402,0,0,1.0589402,40.95988,38.604858);transform: matrix(1.0589402,0,0,1.0589402,40.95988,38.604858);}#el_XGgldbcEhep{fill: #f8cf34;stroke: #4b31aa;stroke-width: 4;stroke-linecap: round;stroke-linejoin: round;stroke-miterlimit: 10;}#el_Yth7IsH2-7d{fill: #f69230;}#el_UA7dBOysOLR{fill: #d7ecf9;stroke: #4b31aa;stroke-width: 4;stroke-linecap: round;stroke-linejoin: round;stroke-miterlimit: 10;}#el_M9ZHujTxYAf{fill: #4b31aa;}#el_IMSTjdVPpZF{fill: #f69230;}#el_PAMcpRzycCb{fill: #f69230;}#el_zwAnn-d9L1p{fill: #4b31aa;}#el_vsrezUtx4r7{fill: #4b31aa;}#el_XZNkTjdt07x{-webkit-transform: matrix(1.0589402,0,0,1.0589402,40.95988,38.604858);transform: matrix(1.0589402,0,0,1.0589402,40.95988,38.604858);}#el_c5-ooI8_BmO{fill: #453bb6;}#el_aCB2ztl8tQP{-webkit-transform: matrix(1.0589402,0,0,1.0589402,40.95988,38.604858);transform: matrix(1.0589402,0,0,1.0589402,40.95988,38.604858);}#el_WzdcAfmFn7e{fill: #ffffff;stroke: #4b31aa;stroke-width: 4;stroke-linecap: round;stroke-linejoin: round;stroke-miterlimit: 10;}#el_SH-cC6l8cll{fill: #ffffff;stroke: #4b31aa;stroke-width: 4;stroke-linecap: round;stroke-linejoin: round;stroke-miterlimit: 10;}#el_SILjdZuqCD_0mMaaDI5p{-webkit-animation-name: el_SILjdZuqCD_0mMaaDI5p_Animation;animation-name: el_SILjdZuqCD_0mMaaDI5p_Animation;-webkit-animation-timing-function: cubic-bezier(0.42, 0, 0.58, 1);animation-timing-function: cubic-bezier(0.42, 0, 0.58, 1);}#el_aCB2ztl8tQP_Kj5tBmz-n{-webkit-animation-name: el_aCB2ztl8tQP_Kj5tBmz-n_Animation;animation-name: el_aCB2ztl8tQP_Kj5tBmz-n_Animation;-webkit-animation-timing-function: cubic-bezier(0.42, 0, 0.58, 1);animation-timing-function: cubic-bezier(0.42, 0, 0.58, 1);}#el_HECjuanuJ5H_xCnHg48CN{-webkit-animation-name: el_HECjuanuJ5H_xCnHg48CN_Animation;animation-name: el_HECjuanuJ5H_xCnHg48CN_Animation;-webkit-animation-timing-function: cubic-bezier(0.42, 0, 0.58, 1);animation-timing-function: cubic-bezier(0.42, 0, 0.58, 1);}#el_XZNkTjdt07x_y_WAUtSZL{-webkit-animation-name: el_XZNkTjdt07x_y_WAUtSZL_Animation;animation-name: el_XZNkTjdt07x_y_WAUtSZL_Animation;-webkit-animation-timing-function: cubic-bezier(0.42, 0, 0.58, 1);animation-timing-function: cubic-bezier(0.42, 0, 0.58, 1);}#el_XZNkTjdt07x_D_0gdOLHZ{-webkit-animation-name: el_XZNkTjdt07x_D_0gdOLHZ_Animation;animation-name: el_XZNkTjdt07x_D_0gdOLHZ_Animation;-webkit-animation-timing-function: cubic-bezier(0.42, 0, 0.58, 1);animation-timing-function: cubic-bezier(0.42, 0, 0.58, 1);}</style><metadata id="metadata296"><rdf:rdf><cc:work rdf:about=""><dc:format>image/svg+xml</dc:format><dc:type rdf:resource="http://purl.org/dc/dcmitype/StillImage"/><dc:title/></cc:work></rdf:rdf></metadata><defs id="defs294"/><sodipodi:namedview pagecolor="#ffffff" bordercolor="#666666" borderopacity="1" objecttolerance="10" gridtolerance="10" guidetolerance="10" inkscape:pageopacity="0" inkscape:pageshadow="2" inkscape:window-width="1290" inkscape:window-height="656" id="el_LWvQBdxvaK" showgrid="false" inkscape:zoom="0.5686747" inkscape:cx="192.5" inkscape:cy="207.5" inkscape:window-x="2296" inkscape:window-y="62" inkscape:window-maximized="0" inkscape:current-layer="svg290"/>

<g id="el_RP9nuXOlY6">
	<path d="M 241.6,316.4 C 200.5,298.7 176.7,292.6 165.6,286.1 131.9,266.4 23.2,241.8 54,131.3 78.6,43.1 136.3,75 197.7,52 256.1,30.2 350.1,11.4 361.5,155.6 373.6,307.2 296.1,339.9 241.6,316.4 Z" id="el_b5GCcnsGti" inkscape:connector-curvature="0"/>
</g>
<g id="el_SILjdZuqCD_0mMaaDI5p" data-animator-group="true" data-animator-type="0"><g id="el_SILjdZuqCD">
	<g id="el_GPug6viBPw">
		<path d="M 81.5,170.5 C 72.4,170.5 65,163.1 65,154 v -15.3 c 0,-14.3 9.7,-26.6 23.6,-30.1 13.5,-3.3 22.9,-15.9 22.3,-29.8 C 110.3,63.5 97.9,51.1 82.6,50.5 74.5,50.2 66.8,53.1 61,58.7 55.2,64.3 52,71.9 52,80 52,89.1 44.6,96.5 35.5,96.5 26.4,96.5 19,89.1 19,80 19,62.9 25.8,46.9 38.2,35 50.5,23.1 66.8,16.9 84,17.6 c 32.4,1.2 58.8,27.6 60,60 1.1,29 -18.1,55.1 -46,62.7 V 154 c 0,9.1 -7.4,16.5 -16.5,16.5 z" id="el_3LyiqP9-Pn" inkscape:connector-curvature="0"/>
		<path d="m 81.5,213 c -0.5,0 -1.1,0 -1.6,-0.1 -0.5,-0.1 -1.1,-0.1 -1.6,-0.2 -0.5,-0.1 -1.1,-0.2 -1.6,-0.4 -0.5,-0.2 -1,-0.3 -1.5,-0.5 -0.5,-0.2 -1,-0.4 -1.5,-0.7 -0.5,-0.3 -0.9,-0.5 -1.4,-0.8 -0.5,-0.3 -0.9,-0.6 -1.3,-1 -0.4,-0.3 -0.8,-0.7 -1.2,-1.1 -0.4,-0.4 -0.7,-0.8 -1.1,-1.2 -0.3,-0.4 -0.7,-0.9 -1,-1.3 -0.3,-0.5 -0.6,-0.9 -0.8,-1.4 -0.3,-0.5 -0.5,-1 -0.7,-1.5 -0.2,-0.5 -0.4,-1 -0.5,-1.5 -0.2,-0.5 -0.3,-1 -0.4,-1.6 -0.1,-0.5 -0.2,-1.1 -0.2,-1.6 0,-0.5 -0.1,-1.1 -0.1,-1.6 0,-0.5 0,-1.1 0.1,-1.6 0.1,-0.5 0.1,-1.1 0.2,-1.6 0.1,-0.5 0.2,-1.1 0.4,-1.6 0.1,-0.5 0.3,-1 0.5,-1.5 0.2,-0.5 0.4,-1 0.7,-1.5 0.3,-0.5 0.5,-0.9 0.8,-1.4 0.3,-0.5 0.6,-0.9 1,-1.3 0.4,-0.4 0.7,-0.8 1.1,-1.2 0.4,-0.4 0.8,-0.7 1.2,-1.1 0.4,-0.3 0.8,-0.7 1.3,-1 0.5,-0.3 0.9,-0.6 1.4,-0.8 0.5,-0.3 1,-0.5 1.5,-0.7 0.5,-0.2 1,-0.4 1.5,-0.5 0.5,-0.2 1,-0.3 1.6,-0.4 0.5,-0.1 1.1,-0.2 1.6,-0.2 1.1,-0.1 2.2,-0.1 3.2,0 0.5,0 1.1,0.1 1.6,0.2 0.5,0.1 1,0.2 1.6,0.4 0.5,0.2 1,0.3 1.5,0.5 0.5,0.2 1,0.4 1.5,0.7 0.5,0.3 0.9,0.5 1.4,0.8 0.5,0.3 0.9,0.6 1.3,1 0.4,0.3 0.8,0.7 1.2,1.1 0.4,0.4 0.7,0.8 1.1,1.2 0.3,0.4 0.7,0.8 1,1.3 0.3,0.5 0.6,0.9 0.8,1.4 0.3,0.5 0.5,1 0.7,1.5 0.2,0.5 0.4,1 0.5,1.5 0.1,0.5 0.3,1 0.4,1.6 0.1,0.5 0.2,1.1 0.2,1.6 0,0.5 0.1,1.1 0.1,1.6 0,0.5 0,1.1 -0.1,1.6 -0.1,0.5 -0.1,1.1 -0.2,1.6 -0.1,0.5 -0.2,1.1 -0.4,1.6 -0.2,0.5 -0.3,1 -0.5,1.5 -0.2,0.5 -0.4,1 -0.7,1.5 -0.3,0.5 -0.5,0.9 -0.8,1.4 -0.3,0.4 -0.6,0.9 -1,1.3 -0.4,0.4 -0.7,0.8 -1.1,1.2 -0.4,0.4 -0.8,0.7 -1.2,1.1 -0.4,0.3 -0.9,0.7 -1.3,1 -0.4,0.3 -0.9,0.6 -1.4,0.8 -0.5,0.3 -1,0.5 -1.5,0.7 -0.5,0.2 -1,0.4 -1.5,0.5 -0.5,0.2 -1,0.3 -1.6,0.4 -0.5,0.1 -1.1,0.2 -1.6,0.2 -0.5,0.1 -1.1,0.1 -1.6,0.1 z" id="el_ritjyvA5HA" inkscape:connector-curvature="0"/>
	</g>
</g></g>
<g id="el_Sa4VM-SaX-">
	<g id="el_yAMJY8IrL5">
		<g id="el_BXKRQ85hOu">
			<g id="el_p9hY_9sMev">
				<path d="m 335.5,100.5 v 3.4 9.4 6.9 H 363 v -19.7 c 0,-7.1 -5.8,-12.9 -12.9,-12.9 h -27.5 c 7.2,0 12.9,5.8 12.9,12.9 z" id="el_fERApOnDcj" inkscape:connector-curvature="0"/>
				<path d="m 218,87.6 c -7.1,0 -12.9,5.8 -12.9,12.9 v -11.2 73.8 54.1 17.2 12.9 c 0,7.1 -5.8,12.9 -12.9,12.9 h 131.3 c 7.1,0 12.9,-5.8 12.9,-12.9 v -30 -97.8 11.2 -17.2 -12.9 c 0,-7.1 5.8,-12.9 12.9,-12.9 H 218 Z" id="el_mj9Rju2_p2" inkscape:connector-curvature="0"/>
				<path d="m 296.9,19 c 7.1,0 12.9,5.8 12.9,12.9 v 215.4 c 0,7.1 5.8,12.9 12.9,12.9 H 194.8 c -7.1,0 -12.9,-5.8 -12.9,-12.9 L 282.3,35.3 181.9,44.7 282.3,31.8 c 0,-7.1 -5.8,-12.9 -12.9,-12.9 h 27.5 z" id="el_5zs-Up2Xw4" inkscape:connector-curvature="0"/>
				<path d="M 163.9,19 C 156.8,19 151,24.8 151,31.9 v 18 73.8 54.1 17.2 12.9 c 0,7.1 -5.8,12.9 -12.9,12.9 h 131.3 c 7.1,0 12.9,-5.8 12.9,-12.9 v -30 -98 -30 -5.1 -12.9 c 0,-7.1 5.8,-12.9 12.9,-12.9 z" id="el_qA7j1_y1IC" inkscape:connector-curvature="0"/>
				<path d="m 254,121.1 v 57.5 c 0,7.1 -5.8,12.9 -12.9,12.9 v 0 c -7.1,0 -12.9,-5.8 -12.9,-12.9 v -57.5 c 0,-7.1 5.8,-12.9 12.9,-12.9 v 0 c 7.1,0 12.9,5.8 12.9,12.9 z" id="el_-VxXsZr2-Ta" inkscape:connector-curvature="0"/>
				<path d="m 241.2,108.2 c 7.1,0 12.9,5.8 12.9,12.9 v 86.7 c 0,7.1 5.8,12.9 12.9,12.9 h -27.5 c -7.1,0 -12.9,-5.8 -12.9,-12.9 v -83.2 9.4 -12.9 c 0,-7.1 -5.8,-12.9 -12.9,-12.9 z" id="el_2Vm1uiW_BEu" inkscape:connector-curvature="0"/>
				<g id="el_61Fg2x6TqOM">
					<path d="M 97,121.1 V 303 H 228.3 V 205.2 134 121.1 c 0,-7.1 5.8,-12.9 12.9,-12.9 H 109.9 c -7.1,0 -12.9,5.8 -12.9,12.9 z" id="el_4DAYMhJ_fAa" inkscape:connector-curvature="0"/>
				</g>
				<line x1="230.39999" y1="216.60001" x2="269" y2="216.60001" id="el_sDHWJYdc0iQ"/>
				<g id="el_-Mm7fMCNnza">
					<g id="el_9qBUCNgsTVK">
						<g id="el_w3H2RTURWgd">
							<g id="el_e2dah5p7xik">
								<g id="el_LI3-6RRkUlN">
									<g id="el_y2k1C76rSyG">
										<g id="el_unuIIwENlwh">
											<rect x="156.5" y="158.10001" width="45.900002" height="3.5" id="el_gupuPLbkbdB"/>
											<rect x="154.7" y="156.2" width="49.599998" height="7.0999999" id="el_AwyIt1-ySqC"/>
										</g>
									</g>
								</g>
								<g id="el_7pRLRlC1fa6">
									<g id="el_PwbozVL1Cpv">
										<g id="el_j3FSK_dNz8C">
											<rect x="156.5" y="171" width="45.900002" height="3.5" id="el_Og4vZjU4RWg"/>
											<rect x="154.7" y="169.2" width="49.599998" height="7.0999999" id="el_tjDQF9jRXUm"/>
										</g>
									</g>
								</g>
							</g>
							<g id="el_70ULGqciLk7">
								<g id="el_T2vTfFsGZhf">
									<g id="el_oeH2L-R008R">
										<g id="el_1on0tPQtkv_">
											<rect x="156.5" y="187.89999" width="45.900002" height="3.5" id="el_VEL5KBHMkBY"/>
											<rect x="154.7" y="186.10001" width="49.599998" height="7.0999999" id="el_cIACKWttWI_"/>
										</g>
									</g>
								</g>
								<g id="el_cnPfaaSpmiK">
									<g id="el_VpHALh0IKf-">
										<g id="el_8e4TdbJy4PL">
											<rect x="156.5" y="200.89999" width="45.900002" height="3.5" id="el_-9EH0Butg_I"/>
											<rect x="154.7" y="199" width="49.599998" height="7.0999999" id="el_k33TGG97-9P"/>
										</g>
									</g>
								</g>
							</g>
						</g>
						<g id="el_PRPtiSjviR2">
							<g id="el_l3fQ6NkyIAO">
								<g id="el_x4GFlfhTrau">
									<g id="el_x4ARZWiUX3m">
										<g id="el_VHOMkzqLuZy">
											<rect x="156.5" y="221.89999" width="45.900002" height="3.5" id="el__VnD53Nzelz"/>
											<rect x="154.7" y="220" width="49.599998" height="7.0999999" id="el_m9UIkgL1OB6"/>
										</g>
									</g>
								</g>
								<g id="el_RNiPcmKoDV8">
									<g id="el_vEQc2OG6maI">
										<g id="el_ge6GxoD8Uus">
											<rect x="156.5" y="234.8" width="45.900002" height="3.5" id="el_sfVANA6Mojn"/>
											<rect x="154.7" y="233" width="49.599998" height="7.0999999" id="el_3h_cVJsvXCk"/>
										</g>
									</g>
								</g>
							</g>
							<g id="el_XzbSw-jHlTW">
								<g id="el_fAk9JdRoDNo">
									<g id="el_LZg0Z-cV5yL">
										<g id="el_3dA0q2aoMK3">
											<rect x="156.5" y="251.8" width="45.900002" height="3.5" id="el_U6ESB3E6gPt"/>
											<rect x="154.7" y="249.89999" width="49.599998" height="7.0999999" id="el_-t8AIaSzJX2"/>
										</g>
									</g>
								</g>
								<g id="el_PMxBuznm4pf">
									<g id="el_Cyaudv141Gt">
										<g id="el_Pq2zp_lqxID">
											<rect x="156.5" y="264.70001" width="45.900002" height="3.5" id="el_kBwbUJcwacy"/>
											<rect x="154.7" y="262.89999" width="49.599998" height="7.0999999" id="el_dUEVz2Eu_uN"/>
										</g>
									</g>
								</g>
							</g>
						</g>
					</g>
					<g id="el_8c9u1KlNq4B">
						<path d="m 137.8,175.1 h -18.6 v -18.6 h 18.6 z m -13.6,-5 h 8.6 v -8.6 h -8.6 z" id="el_Gut3rtQ10MG" inkscape:connector-curvature="0"/>
					</g>
					<g id="el_cSzpAzJfmcY">
						<path d="m 137.8,204.4 h -18.6 v -18.6 h 18.6 z m -13.6,-5 h 8.6 v -8.6 h -8.6 z" id="el_Y5Qh4rMM8mw" inkscape:connector-curvature="0"/>
					</g>
					<g id="el_zvSDq0a69qZ">
						<path d="m 137.8,239.9 h -18.6 v -18.6 h 18.6 z m -13.6,-5 h 8.6 v -8.6 h -8.6 z" id="el_cb5MexH_pzT" inkscape:connector-curvature="0"/>
					</g>
					<g id="el_3efUT4Jbwpn">
						<path d="m 137.8,269.1 h -18.6 v -18.6 h 18.6 z m -13.6,-4.9 h 8.6 v -8.6 h -8.6 z" id="el_3Y8gYQu3gbR" inkscape:connector-curvature="0"/>
					</g>
				</g>
			</g>
			<g id="el_LryGblj3Uj_">
				<g id="el_wheRLwraE6s">
					<g id="el_s2r3gmoKdtP">
						<g id="el_Oa-aClsL3Ps">
							<g id="el_g-PMe4u_VLC">
								<g id="el_iuhMtGsrUV-">
									<rect x="223.39999" y="44.799999" width="45.900002" height="3.5" id="el_ZqIppFoXQrN"/>
									<rect x="221.60001" y="43" width="49.599998" height="7.0999999" id="el_tSsXqTzZdA8"/>
								</g>
							</g>
						</g>
						<g id="el_MtrQxABzkF8">
							<g id="el_8LDC4qXvxxd">
								<g id="el_IDgCFWUO50K">
									<rect x="223.39999" y="57.700001" width="45.900002" height="3.5" id="el_hoccNBs7KmD"/>
									<rect x="221.60001" y="55.900002" width="49.599998" height="7.0999999" id="el_jnDjj-rCBAI"/>
								</g>
							</g>
						</g>
					</g>
					<g id="el_QOKgAbsjwyO">
						<g id="el_lb5nDXXEAyX">
							<g id="el_b74lPpX4mbo">
								<g id="el_m7sEkUKQcU3">
									<rect x="223.39999" y="74.699997" width="45.900002" height="3.5" id="el_B4eSMnUTIC6"/>
									<rect x="221.60001" y="72.900002" width="49.599998" height="7.0999999" id="el_qkDbj08peh-"/>
								</g>
							</g>
						</g>
						<g id="el_xxj-86-Md9i">
							<g id="el_PkiHV401B2l">
								<g id="el_WIsIy3QEhvf">
									<rect x="223.39999" y="87.599998" width="45.900002" height="3.5" id="el_bxEYeBVn2ur"/>
									<rect x="221.60001" y="85.800003" width="49.599998" height="7.0999999" id="el_O1vaWcEeXyD"/>
								</g>
							</g>
						</g>
					</g>
				</g>
			</g>
			<g id="el_qZYzMW6sgeC">
				<g id="el_ohIBSITDyAS">
					<g id="el_Q9YEfLBEMaH">
						<g id="el_NNNOyELsG75">
							<g id="el_9XcPQ45Nv-r">
								<g id="el_n04bgTtZsQe">
									<rect x="166.8" y="44.799999" width="45.900002" height="3.5" id="el_oDJGeTCHYiM"/>
									<rect x="165" y="43" width="49.599998" height="7.0999999" id="el_IlSiVElhE7U"/>
								</g>
							</g>
						</g>
						<g id="el_Oq4RKR29V6P">
							<g id="el_o_PsuxctAH1">
								<g id="el_oj8_9mnzQoV">
									<rect x="166.8" y="57.700001" width="45.900002" height="3.5" id="el_c1gMn5lT9jX"/>
									<rect x="165" y="55.900002" width="49.599998" height="7.0999999" id="el_ogEriw9cm6b"/>
								</g>
							</g>
						</g>
					</g>
					<g id="el_wvF4Djr7NHa">
						<g id="el_i7Cdlr80MEq">
							<g id="el_0pDuI7PoZ3S">
								<g id="el_M0B0T7ykqN4">
									<rect x="166.8" y="74.699997" width="45.900002" height="3.5" id="el_lsFyJmn8iyY"/>
									<rect x="165" y="72.900002" width="49.599998" height="7.0999999" id="el_43J2YIwnZPL"/>
								</g>
							</g>
						</g>
						<g id="el_NcYjy6S8g_r">
							<g id="el_s_t5ufpuhVh">
								<g id="el_bHfZFgUCOhs">
									<rect x="166.8" y="87.599998" width="45.900002" height="3.5" id="el_5KHKm1Kd12F"/>
									<rect x="165" y="85.800003" width="49.599998" height="7.0999999" id="el_dKl_4oQLr7F"/>
								</g>
							</g>
						</g>
					</g>
				</g>
			</g>
		</g>
	</g>
</g>
<g id="el_HECjuanuJ5H_xCnHg48CN" data-animator-group="true" data-animator-type="0"><g id="el_HECjuanuJ5H">
	<g id="el_32LqPYc9KrI">
		<g id="el_2xgKLyxSkkB">
			<path d="m 231.1,227.2 h -4.8 c -3.5,0 -6.3,2.8 -6.3,6.3 v 15.6 h -1.1 V 229 c 0,-4.5 -3.6,-8.1 -8.1,-8.1 h -7 c -4.5,0 -8.1,3.6 -8.1,8.1 v 20.1 h -1.5 v -24.3 c 0,-4.5 -3.6,-8.1 -8.1,-8.1 h -7 c -4.5,0 -8.1,3.6 -8.1,8.1 v 24.3 h -1.5 v -59 c 0,-4.8 -3.9,-8.8 -8.8,-8.8 H 155 c -4.8,0 -8.8,3.9 -8.8,8.8 v 61.8 c -4.5,0 -8.4,2.9 -9.7,7.2 l -3.7,12.2 c -2.3,7.6 -0.9,15.9 3.9,22.4 l 14.1,19.7 c 0.5,0.7 1,1.5 1.5,2.2 l 0.1,0.1 c 0,0 0,0 0,0 5.3,6.7 13.5,10.9 22.7,10.9 h 33.2 c 16,0 29,-13 29,-29 v -64.1 c 0.1,-3.5 -2.7,-6.3 -6.2,-6.3 z" id="el_XGgldbcEhep" inkscape:connector-curvature="0"/>
			<g id="el_mLfzrbxik-i">
				<rect x="159.89999" y="319.89999" width="60.900002" height="16" id="el_Yth7IsH2-7d"/>
			</g>
			<g id="el_W5ByR69QBNY">
				<rect x="155.2" y="337.39999" width="73.300003" height="34.099998" id="el_UA7dBOysOLR"/>
			</g>
			<g id="el_C1cwz64Mqyx">
				<g id="el_3tCxGV48NKi">
					<rect x="216.10001" y="337.39999" width="12.4" height="34.099998" id="el_M9ZHujTxYAf"/>
				</g>
			</g>
			<g id="el_fI_SZv3qdxY">
				<path d="m 229.6,225.7 h -4.8 c -0.5,0 -0.9,0.1 -1.4,0.2 2.8,0.6 4.9,3.1 4.9,6.1 v 64.1 c 0,16 -13,29 -29,29 h 7.5 c 16,0 29,-13 29,-29 V 232 c 0.1,-3.5 -2.7,-6.3 -6.2,-6.3 z" id="el_IMSTjdVPpZF" inkscape:connector-curvature="0"/>
			</g>
			<g id="el_mhhQXiY1uEt">
				<path d="m 136.6,259.1 -1.9,6.2 11.5,13.3 v -26.8 c -4.4,0.1 -8.3,3 -9.6,7.3 z" id="el_PAMcpRzycCb" inkscape:connector-curvature="0"/>
			</g>
			<path d="m 231.1,225 h -4.8 c -0.3,0 -0.6,0 -0.9,0.1 0,0 -0.1,0 -0.1,0 -1.7,0.2 -3.2,0.9 -4.4,1.9 -1,-4.7 -5.1,-8.2 -10.1,-8.2 h -7 c -3.1,0 -5.9,1.4 -7.7,3.5 -1.1,-4.4 -5.2,-7.7 -10,-7.7 h -7 c -2.9,0 -5.6,1.2 -7.4,3.2 v -27.6 c 0,-6 -4.9,-11 -11,-11 H 155 c -6,0 -11,4.9 -11,11 V 250 c -4.5,0.8 -8.2,4 -9.6,8.6 l -3.7,12.2 c -2.5,8.3 -0.9,17.4 4.2,24.3 l 14.1,19.7 c 0.5,0.8 1,1.5 1.6,2.2 l 0.1,0.1 c 0,0.1 0.1,0.1 0.2,0.2 2.3,2.9 5.1,5.3 8.3,7.2 v 10.9 h -4 c -1.2,0 -2.2,1 -2.2,2.2 v 34.1 c 0,1.2 1,2.2 2.2,2.2 h 73.3 c 1.2,0 2.2,-1 2.2,-2.2 v -34.1 c 0,-1.2 -1,-2.2 -2.2,-2.2 h -4 v -10.9 c 0,0 0.1,0 0.1,-0.1 9.4,-5.7 15,-15.7 15,-26.7 v -64.1 c 0,-4.8 -3.8,-8.6 -8.5,-8.6 z m -4.8,144.3 h -68.9 v -29.7 h 68.9 z m 8.9,-71.7 c 0,9.4 -4.8,18 -12.9,22.9 -0.4,0.2 -0.7,0.4 -1.1,0.6 -0.7,0.4 -1.1,1.1 -1.1,1.9 v 12.1 H 163.6 V 323 c 0,-0.8 -0.4,-1.5 -1.1,-1.9 -3.1,-1.7 -5.9,-4 -8.1,-6.8 0,0 0,0 0,-0.1 v 0 c 0,0 0,-0.1 -0.1,-0.1 -0.5,-0.6 -1,-1.3 -1.4,-2 0,0 0,-0.1 -0.1,-0.1 l -14.1,-19.7 c -4.3,-5.8 -5.7,-13.5 -3.6,-20.4 l 3.7,-12.2 c 0.8,-2.6 2.8,-4.6 5.4,-5.3 v 24.3 c 0,1.2 1,2.2 2.2,2.2 1.2,0 2.2,-1 2.2,-2.2 v -88.6 c 0,-3.6 2.9,-6.6 6.6,-6.6 h 5.7 c 3.6,0 6.6,2.9 6.6,6.6 v 59 c 0,1.2 1,2.2 2.2,2.2 h 1.5 c 1.2,0 2.2,-1 2.2,-2.2 v -24.3 c 0,-3.2 2.6,-5.9 5.9,-5.9 h 7 c 3.2,0 5.9,2.6 5.9,5.9 v 24.3 c 0,1.2 1,2.2 2.2,2.2 h 1.5 c 1.2,0 2.2,-1 2.2,-2.2 V 229 c 0,-3.2 2.6,-5.9 5.9,-5.9 h 7 c 3.2,0 5.9,2.6 5.9,5.9 v 20.1 c 0,1.2 1,2.2 2.2,2.2 h 1.1 c 1.2,0 2.2,-1 2.2,-2.2 v -15.6 c 0,-2.1 1.6,-3.8 3.6,-4.1 0,0 0.1,0 0.1,0 0.1,0 0.3,0 0.4,0 h 4.8 c 2.3,0 4.1,1.8 4.1,4.1 v 64.1 z" id="el_zwAnn-d9L1p" inkscape:connector-curvature="0"/>
		</g>
		<circle cx="170.5" cy="355.79999" r="5.5" id="el_vsrezUtx4r7"/>
	</g>
</g></g>
<g id="el_XZNkTjdt07x_y_WAUtSZL" data-animator-group="true" data-animator-type="0"><g id="el_XZNkTjdt07x_D_0gdOLHZ" data-animator-group="true" data-animator-type="2"><g id="el_XZNkTjdt07x">
	<ellipse cx="193" cy="398.70001" rx="40.700001" ry="4.6999998" id="el_c5-ooI8_BmO"/>
</g></g></g>
<g id="el_aCB2ztl8tQP_Kj5tBmz-n" data-animator-group="true" data-animator-type="0"><g id="el_aCB2ztl8tQP">
	<g id="el_JD5Mt1DO55V">
		<path d="m 289.8,175.3 c -3.2,0 -5.9,-2.6 -5.9,-5.9 V 164 c 0,-5.1 3.5,-9.5 8.4,-10.7 4.8,-1.2 8.1,-5.6 7.9,-10.6 -0.2,-5.4 -4.6,-9.8 -10.1,-10.1 -2.9,-0.1 -5.6,0.9 -7.7,2.9 -2.1,2 -3.2,4.7 -3.2,7.5 0,3.2 -2.6,5.9 -5.9,5.9 -3.2,0 -5.9,-2.6 -5.9,-5.9 0,-6.1 2.4,-11.8 6.8,-16 4.4,-4.2 10.2,-6.4 16.3,-6.2 11.5,0.4 20.9,9.8 21.3,21.3 0.4,10.3 -6.4,19.6 -16.3,22.3 v 4.9 c 0.2,3.4 -2.5,6 -5.7,6 z" id="el_WzdcAfmFn7e" inkscape:connector-curvature="0"/>
		<path d="m 289.8,190.4 c -0.2,0 -0.4,0 -0.6,0 -0.2,0 -0.4,0 -0.6,-0.1 -0.2,0 -0.4,-0.1 -0.6,-0.1 -0.2,-0.1 -0.4,-0.1 -0.5,-0.2 -0.2,-0.1 -0.4,-0.2 -0.5,-0.2 -0.2,-0.1 -0.3,-0.2 -0.5,-0.3 -0.2,-0.1 -0.3,-0.2 -0.5,-0.3 -0.1,-0.1 -0.3,-0.3 -0.4,-0.4 -0.1,-0.1 -0.3,-0.3 -0.4,-0.4 -0.1,-0.1 -0.2,-0.3 -0.3,-0.5 -0.1,-0.2 -0.2,-0.3 -0.3,-0.5 -0.1,-0.2 -0.2,-0.3 -0.2,-0.5 -0.1,-0.2 -0.1,-0.4 -0.2,-0.5 -0.1,-0.2 -0.1,-0.4 -0.1,-0.6 0,-0.2 -0.1,-0.4 -0.1,-0.6 0,-0.2 0,-0.4 0,-0.6 0,-0.2 0,-0.4 0,-0.6 0,-0.2 0,-0.4 0.1,-0.6 0,-0.2 0.1,-0.4 0.1,-0.6 0.1,-0.2 0.1,-0.4 0.2,-0.5 0.1,-0.2 0.2,-0.4 0.2,-0.5 0.1,-0.2 0.2,-0.3 0.3,-0.5 0.1,-0.2 0.2,-0.3 0.3,-0.5 0.1,-0.1 0.3,-0.3 0.4,-0.4 0.1,-0.1 0.3,-0.3 0.4,-0.4 0.1,-0.1 0.3,-0.2 0.5,-0.3 0.2,-0.1 0.3,-0.2 0.5,-0.3 0.2,-0.1 0.3,-0.2 0.5,-0.2 0.2,-0.1 0.4,-0.1 0.5,-0.2 0.2,-0.1 0.4,-0.1 0.6,-0.1 0.2,0 0.4,-0.1 0.6,-0.1 0.4,0 0.8,0 1.2,0 0.2,0 0.4,0 0.6,0.1 0.2,0 0.4,0.1 0.6,0.1 0.2,0.1 0.4,0.1 0.5,0.2 0.2,0.1 0.4,0.2 0.5,0.2 0.2,0.1 0.3,0.2 0.5,0.3 0.2,0.1 0.3,0.2 0.5,0.3 0.1,0.1 0.3,0.3 0.4,0.4 0.1,0.1 0.3,0.3 0.4,0.4 0.1,0.1 0.2,0.3 0.3,0.5 0.1,0.2 0.2,0.3 0.3,0.5 0.1,0.2 0.2,0.3 0.2,0.5 0.1,0.2 0.1,0.4 0.2,0.5 0.1,0.1 0.1,0.4 0.1,0.6 0,0.2 0.1,0.4 0.1,0.6 0,0.2 0,0.4 0,0.6 0,0.2 0,0.4 0,0.6 0,0.2 0,0.4 -0.1,0.6 0,0.2 -0.1,0.4 -0.1,0.6 0,0.2 -0.1,0.4 -0.2,0.5 -0.1,0.2 -0.2,0.4 -0.2,0.5 -0.1,0.2 -0.2,0.3 -0.3,0.5 -0.1,0.2 -0.2,0.3 -0.3,0.5 -0.1,0.1 -0.3,0.3 -0.4,0.4 -0.1,0.1 -0.3,0.3 -0.4,0.4 -0.1,0.1 -0.3,0.2 -0.5,0.3 -0.2,0.1 -0.3,0.2 -0.5,0.3 -0.2,0.1 -0.3,0.2 -0.5,0.2 -0.2,0.1 -0.4,0.1 -0.5,0.2 -0.2,0.1 -0.4,0.1 -0.6,0.1 -0.2,0 -0.4,0.1 -0.6,0.1 -0.2,0 -0.4,0 -0.6,0 z" id="el_SH-cC6l8cll" inkscape:connector-curvature="0"/>
	</g>
</g></g>
</svg>